<?xml version="1.0" encoding="iso-8859-1"?>
<!-- Generator: Adobe Illustrator 19.0.0, SVG Export Plug-In . SVG Version: 6.00 Build 0)  -->
<svg xmlns="http://www.w3.org/2000/svg" xmlns:xlink="http://www.w3.org/1999/xlink" version="1.1" id="Capa_1" x="0px" y="0px" viewBox="0 0 512 512" style="enable-background:new 0 0 512 512;" xml:space="preserve" width="512px" height="512px">
<g>
	<g>
		<path d="M509.039,453.668c-0.001,0-0.001-0.001-0.001-0.001c-4.85-10.064-15.2-16.569-26.37-16.569h-13.013    c6.275-7.393,10.073-16.952,10.073-27.387v-98.146c0-4.141-3.356-7.498-7.498-7.498c-4.142,0-7.498,3.357-7.498,7.498v98.146    c0,15.101-12.284,27.387-27.384,27.387c-3.047,0-353.448,0-362.679,0c-15.1,0-27.385-12.286-27.385-27.387V163.092    c0-15.1,12.285-27.385,27.385-27.385h84.174c-1.351,7.074-1.899,14.148-1.676,21.436c-42.7,0-29.367,0-75.177,0    c-7.489,0-13.581,6.092-13.581,13.581c0,9.941,0,217.649,0,229.418c0,8.708,7.084,15.792,15.792,15.792h343.616    c8.707,0,15.791-7.084,15.791-15.792c0-6.295,0-217.536,0-227.208c0-8.708-7.084-15.792-15.791-15.792h-72.961    c0.064-2.096,0.056-3.085,0.056-3.085c0-6.242-0.621-12.543-1.722-18.351h84.158c15.1,0,27.384,12.285,27.384,27.385v113.483    c0,4.141,3.356,7.498,7.498,7.498c4.142,0,7.498-3.357,7.498-7.498V163.092c0-23.369-19.012-42.381-42.38-42.381h-88.225    c-11.584-32.351-39.584-57.305-74.916-63.88c-4.072-0.756-7.986,1.928-8.743,5.999c-0.758,4.071,1.928,7.986,5.999,8.744    c81.766,15.216,93.492,128.893,16.018,160.278c-4.266,1.728-7.022,5.832-7.022,10.458v17.571h-16.953v-67.004h11.425    c9.392,0,17.032-7.64,17.032-17.032v-7.688c0-9.392-7.641-17.032-17.032-17.032h-37.845c-9.392,0-17.032,7.641-17.032,17.032    v7.688c0,9.392,7.64,17.032,17.032,17.032h11.425v67.004H231.56c0-19.654,0.04-18.491-0.105-19.538    c-0.538-3.876-3.128-6.974-6.568-8.351c-77.725-31.072-66.265-143.722,14.456-160.17c4.058-0.827,6.676-4.787,5.849-8.845    c-0.826-4.058-4.787-6.677-8.844-5.851c-32.674,6.658-61.261,30.162-73.348,63.583H74.67c-23.369,0-42.381,19.012-42.381,42.381    V409.71c0,10.434,3.798,19.994,10.073,27.387H29.349c-11.169,0-21.519,6.503-26.369,16.57    c-10.447,21.695,7.397,56.901,40.721,56.901h424.616C501.778,510.569,519.405,475.197,509.039,453.668z M83.406,172.936    c0-0.439,0.357-0.796,0.796-0.796h32.396v0.001v24.538H83.406V172.936z M353.271,172.142h74.547v-0.001    c0.438,0,0.795,0.357,0.795,0.796v23.743h-83.279C349.005,188.959,351.695,180.724,353.271,172.142z M237.087,177.883    c-1.104-0.001-2.035-0.933-2.035-2.035v-7.688c0-1.104,0.932-2.035,2.035-2.035h37.845c1.104,0,2.035,0.933,2.035,2.035v7.688    c0,1.104-0.933,2.035-2.035,2.035H237.087z M219.677,278.774c0-1.785,1.302-3.895,4.384-3.895h63.896    c2.928,0,4.379,1.95,4.384,3.886v3.921c-0.005,2.107-1.786,3.886-3.895,3.886c-6.898,0-58.29,0-64.874,0    c-2.111,0-3.895-1.784-3.895-3.895V278.774z M272.093,301.569l-4.601,9.202c-2.222,4.444-6.515,7.097-11.483,7.097    c-4.968,0-9.262-2.653-11.483-7.097l-4.601-9.202H272.093z M175.56,211.675c10.634,14.846,25.078,26.189,41.002,33.095v15.906    c-6.88,2.179-11.883,8.623-11.883,16.215c0,3.715,0,3.948,0,7.669c0,9.379,7.63,17.009,17.009,17.009h1.47    c4.881,9.76,3.077,6.152,7.954,15.908c4.746,9.492,14.285,15.387,24.897,15.387c10.611,0,20.151-5.895,24.896-15.387l7.955-15.908    h1.47c9.379,0,17.009-7.63,17.009-17.009c0-0.038,0-7.669,0-7.669c0-7.592-5.002-14.035-11.882-16.215v-15.907    c16.343-7.093,30.608-18.525,41.04-33.094h92.116v188.47c0,0.439-0.356,0.796-0.794,0.796H84.2c-0.439,0-0.796-0.357-0.796-0.796    v-188.47C93.46,211.675,165.389,211.675,175.56,211.675z M166.71,196.679h-35.118v-24.538h27.176    C160.307,180.478,162.956,188.799,166.71,196.679z M201.302,452.094h109.414v4.965c0,5.117-4.161,9.279-9.276,9.279h-90.861    c-5.115,0-9.277-4.163-9.277-9.279V452.094z M468.317,495.573H43.701c-22.38,0-32.817-23.755-27.211-35.398    c2.365-4.91,7.413-8.081,12.859-8.081c4.341,0,149.082,0,156.956,0v4.965c0,13.386,10.889,24.275,24.273,24.275h90.861    c13.383,0,24.272-10.89,24.272-24.275v-4.965c8.013,0,152.647,0,156.956,0c5.447,0,10.495,3.172,12.86,8.081    C501.021,471.579,490.993,495.573,468.317,495.573z" fill="#919197"/>
	</g>
</g>
<g>
	<g>
		<path d="M385.24,76.044c-2.07-3.587-6.658-4.815-10.242-2.744l-16.266,9.391c-3.586,2.07-4.815,6.656-2.744,10.242    c2.07,3.588,6.659,4.814,10.242,2.744l16.266-9.391C386.082,84.216,387.311,79.63,385.24,76.044z" fill="#919197"/>
	</g>
</g>
<g>
	<g>
		<path d="M330.62,21.423c-3.585-2.071-8.173-0.843-10.242,2.744l-9.392,16.266c-2.07,3.586-0.842,8.172,2.744,10.242    c3.582,2.069,8.171,0.845,10.242-2.744l9.392-16.266C335.435,28.079,334.207,23.494,330.62,21.423z" fill="#919197"/>
	</g>
</g>
<g>
	<g>
		<path d="M256.009,1.432c-4.142,0-7.498,3.357-7.498,7.498v18.781c0,4.141,3.356,7.498,7.498,7.498    c4.142,0,7.498-3.357,7.498-7.498V8.93C263.507,4.789,260.151,1.432,256.009,1.432z" fill="#919197"/>
	</g>
</g>
<g>
	<g>
		<path d="M201.03,40.433l-9.391-16.266c-2.07-3.587-6.656-4.815-10.242-2.744c-3.586,2.07-4.815,6.656-2.744,10.242l9.391,16.266    c2.07,3.587,6.656,4.816,10.242,2.744C201.872,48.605,203.101,44.019,201.03,40.433z" fill="#919197"/>
	</g>
</g>
<g>
	<g>
		<path d="M153.285,82.69L137.02,73.3c-3.587-2.071-8.172-0.843-10.242,2.744c-2.07,3.585-0.842,8.172,2.744,10.242l16.265,9.391    c3.586,2.07,8.172,0.843,10.242-2.744C158.099,89.346,156.871,84.761,153.285,82.69z" fill="#919197"/>
	</g>
</g>
<g>
</g>
<g>
</g>
<g>
</g>
<g>
</g>
<g>
</g>
<g>
</g>
<g>
</g>
<g>
</g>
<g>
</g>
<g>
</g>
<g>
</g>
<g>
</g>
<g>
</g>
<g>
</g>
<g>
</g>
</svg>
